<svg width="122" height="167" viewBox="0 0 122 167" fill="none" xmlns="http://www.w3.org/2000/svg">
          <path
            d="M88.9505 45H42.2549C41.6959 45 41.1741 44.7562 40.8201 44.325L33.7394 35.775C32.6772 34.4813 31.112 33.75 29.4536 33.75H10.6897C7.61514 33.75 5.09961 36.2812 5.09961 39.375V114.375C5.09961 115.012 5.43501 115.613 5.97539 115.969C6.27352 116.156 6.62756 116.25 6.96296 116.25C7.24247 116.25 7.50334 116.194 7.76421 116.062L93.4785 74.8125C94.1307 74.4938 94.5406 73.8375 94.5406 73.125V50.625C94.5406 47.5312 92.0251 45 88.9505 45Z"
            fill="#E5E5E5"
          />
          <path
            d="M116.379 73.0688C115.708 71.925 114.516 71.25 113.193 71.25H30.292C28.9317 71.25 27.6833 72 27.0311 73.2188L5.32306 113.475C5.00629 114.056 5.02492 114.769 5.36033 115.331C5.69573 115.894 6.31064 116.25 6.96281 116.25H90.758C93.4785 116.25 95.9754 114.75 97.2797 112.331L116.435 76.7812C117.069 75.6 117.05 74.2125 116.36 73.0688H116.379Z"
            fill="#F1F1F1"
          />
          <path
            d="M53.5468 97.5H33.0499C32.025 97.5 31.1865 96.6562 31.1865 95.625C31.1865 94.5938 32.025 93.75 33.0499 93.75H53.5468C54.5716 93.75 55.4101 94.5938 55.4101 95.625C55.4101 96.6562 54.5716 97.5 53.5468 97.5Z"
            fill="#E4E4E4"
          />
          <path
            d="M60.9999 106.875H27.4595C26.4347 106.875 25.5962 106.031 25.5962 105C25.5962 103.969 26.4347 103.125 27.4595 103.125H60.9999C62.0248 103.125 62.8633 103.969 62.8633 105C62.8633 106.031 62.0248 106.875 60.9999 106.875Z"
            fill="#E4E4E4"
          />
          <path
            d="M75.9068 3.75C61.5217 3.75 49.8198 15.525 49.8198 30C49.8198 42.1875 58.2422 52.8187 69.9627 55.5562L74.3043 62.8313C74.6397 63.3938 75.2546 63.75 75.9068 63.75C76.559 63.75 77.1739 63.4125 77.5093 62.8313L81.8509 55.5562C93.5714 52.8187 101.994 42.1875 101.994 30C101.994 15.525 90.2919 3.75 75.9068 3.75Z"
            fill="#F1F1F1"
          />
          <path
            d="M86.5464 19.294C85.8197 18.5628 84.6458 18.5628 83.9191 19.294L75.9253 27.3378L67.9316 19.294C67.2049 18.5628 66.031 18.5628 65.3043 19.294C64.5776 20.0253 64.5776 21.2065 65.3043 21.9378L73.2981 29.9815L65.3043 38.0253C64.5776 38.7565 64.5776 39.9378 65.3043 40.669C65.677 41.044 66.1428 41.2128 66.6273 41.2128C67.1118 41.2128 67.5776 41.0253 67.9503 40.669L75.9439 32.6253L83.9377 40.669C84.3104 41.044 84.7762 41.2128 85.2607 41.2128C85.7452 41.2128 86.211 41.0253 86.5837 40.669C87.3104 39.9378 87.3104 38.7565 86.5837 38.0253L78.5899 29.9815L86.5837 21.9378C87.3104 21.2065 87.3104 20.0253 86.5837 19.294H86.5464Z"
            fill="#E4E4E4"
          />
          <path
            d="M11.9659 148.909V162H10.4318L3.2983 151.722H3.17045V162H1.58523V148.909H3.11932L10.2784 159.213H10.4062V148.909H11.9659ZM18.9221 162.205C18.0357 162.205 17.258 161.994 16.589 161.572C15.9242 161.15 15.4043 160.56 15.0293 159.801C14.6586 159.043 14.4732 158.156 14.4732 157.142C14.4732 156.119 14.6586 155.227 15.0293 154.464C15.4043 153.701 15.9242 153.109 16.589 152.687C17.258 152.265 18.0357 152.054 18.9221 152.054C19.8084 152.054 20.584 152.265 21.2488 152.687C21.9178 153.109 22.4377 153.701 22.8084 154.464C23.1834 155.227 23.3709 156.119 23.3709 157.142C23.3709 158.156 23.1834 159.043 22.8084 159.801C22.4377 160.56 21.9178 161.15 21.2488 161.572C20.584 161.994 19.8084 162.205 18.9221 162.205ZM18.9221 160.849C19.5953 160.849 20.1493 160.677 20.584 160.332C21.0186 159.987 21.3404 159.533 21.5492 158.97C21.758 158.408 21.8624 157.798 21.8624 157.142C21.8624 156.486 21.758 155.874 21.5492 155.308C21.3404 154.741 21.0186 154.283 20.584 153.933C20.1493 153.584 19.5953 153.409 18.9221 153.409C18.2488 153.409 17.6948 153.584 17.2601 153.933C16.8255 154.283 16.5037 154.741 16.2949 155.308C16.0861 155.874 15.9817 156.486 15.9817 157.142C15.9817 157.798 16.0861 158.408 16.2949 158.97C16.5037 159.533 16.8255 159.987 17.2601 160.332C17.6948 160.677 18.2488 160.849 18.9221 160.849ZM34.4435 162.205C33.6254 162.205 32.9031 161.998 32.2766 161.585C31.6502 161.167 31.1602 160.579 30.8065 159.82C30.4528 159.058 30.2759 158.156 30.2759 157.116C30.2759 156.085 30.4528 155.19 30.8065 154.432C31.1602 153.673 31.6523 153.087 32.283 152.674C32.9137 152.261 33.6424 152.054 34.4691 152.054C35.1083 152.054 35.6133 152.161 35.984 152.374C36.359 152.582 36.6445 152.821 36.8406 153.089C37.0408 153.354 37.1964 153.571 37.3072 153.741H37.435V148.909H38.9435V162H37.4862V160.491H37.3072C37.1964 160.67 37.0387 160.896 36.8342 161.169C36.6296 161.437 36.3377 161.678 35.9585 161.891C35.5792 162.1 35.0742 162.205 34.4435 162.205ZM34.6481 160.849C35.2532 160.849 35.7646 160.692 36.1822 160.376C36.5998 160.057 36.9173 159.616 37.1346 159.053C37.3519 158.487 37.4606 157.832 37.4606 157.091C37.4606 156.358 37.354 155.717 37.141 155.167C36.9279 154.613 36.6126 154.183 36.195 153.876C35.7773 153.565 35.2617 153.409 34.6481 153.409C34.0089 153.409 33.4762 153.573 33.0501 153.901C32.6282 154.225 32.3107 154.666 32.0977 155.224C31.8888 155.778 31.7844 156.401 31.7844 157.091C31.7844 157.79 31.891 158.425 32.104 158.996C32.3214 159.562 32.641 160.014 33.0629 160.351C33.489 160.683 34.0174 160.849 34.6481 160.849ZM44.805 162.23C44.1829 162.23 43.6183 162.113 43.1112 161.879C42.604 161.64 42.2013 161.297 41.9031 160.849C41.6048 160.398 41.4556 159.852 41.4556 159.213C41.4556 158.651 41.5664 158.195 41.788 157.845C42.0096 157.491 42.3058 157.214 42.6765 157.014C43.0472 156.814 43.4563 156.665 43.9038 156.567C44.3555 156.464 44.8093 156.384 45.2653 156.324C45.8619 156.247 46.3455 156.19 46.7163 156.151C47.0913 156.109 47.364 156.038 47.5344 155.94C47.7092 155.842 47.7965 155.672 47.7965 155.429V155.378C47.7965 154.747 47.6239 154.257 47.2788 153.908C46.9379 153.558 46.4201 153.384 45.7255 153.384C45.0053 153.384 44.4407 153.541 44.0316 153.857C43.6225 154.172 43.3349 154.509 43.1687 154.866L41.7369 154.355C41.9925 153.759 42.3335 153.294 42.7596 152.962C43.19 152.625 43.6587 152.391 44.1658 152.259C44.6772 152.122 45.18 152.054 45.6744 152.054C45.9897 152.054 46.3519 152.092 46.761 152.169C47.1744 152.241 47.5728 152.393 47.9563 152.623C48.3441 152.853 48.6658 153.2 48.9215 153.665C49.1772 154.129 49.305 154.751 49.305 155.531V162H47.7965V160.67H47.7198C47.6175 160.884 47.4471 161.112 47.2085 161.354C46.9698 161.597 46.6523 161.804 46.256 161.974C45.8597 162.145 45.3761 162.23 44.805 162.23ZM45.0352 160.875C45.6317 160.875 46.1346 160.758 46.5437 160.523C46.957 160.289 47.2681 159.987 47.4769 159.616C47.69 159.245 47.7965 158.855 47.7965 158.446V157.065C47.7326 157.142 47.592 157.212 47.3746 157.276C47.1616 157.336 46.9144 157.389 46.6332 157.436C46.3562 157.479 46.0856 157.517 45.8214 157.551C45.5614 157.581 45.3505 157.607 45.1886 157.628C44.7965 157.679 44.43 157.762 44.0891 157.877C43.7525 157.988 43.4798 158.156 43.271 158.382C43.0664 158.604 42.9641 158.906 42.9641 159.29C42.9641 159.814 43.158 160.21 43.5458 160.479C43.9379 160.743 44.4343 160.875 45.0352 160.875ZM56.3283 152.182V153.46H51.2402V152.182H56.3283ZM52.7232 149.83H54.2317V159.188C54.2317 159.614 54.2935 159.933 54.4171 160.146C54.5449 160.355 54.7069 160.496 54.9029 160.568C55.1032 160.636 55.3141 160.67 55.5357 160.67C55.7019 160.67 55.8382 160.662 55.9448 160.645C56.0513 160.624 56.1365 160.607 56.2005 160.594L56.5073 161.949C56.405 161.987 56.2623 162.026 56.079 162.064C55.8958 162.107 55.6635 162.128 55.3823 162.128C54.9561 162.128 54.5385 162.036 54.1294 161.853C53.7246 161.67 53.388 161.391 53.1195 161.016C52.8553 160.641 52.7232 160.168 52.7232 159.597V149.83ZM61.4867 162.23C60.8645 162.23 60.2999 162.113 59.7928 161.879C59.2857 161.64 58.883 161.297 58.5847 160.849C58.2864 160.398 58.1373 159.852 58.1373 159.213C58.1373 158.651 58.248 158.195 58.4696 157.845C58.6912 157.491 58.9874 157.214 59.3581 157.014C59.7289 156.814 60.138 156.665 60.5854 156.567C61.0371 156.464 61.4909 156.384 61.9469 156.324C62.5435 156.247 63.0272 156.19 63.3979 156.151C63.7729 156.109 64.0456 156.038 64.2161 155.94C64.3908 155.842 64.4782 155.672 64.4782 155.429V155.378C64.4782 154.747 64.3056 154.257 63.9604 153.908C63.6195 153.558 63.1017 153.384 62.4071 153.384C61.687 153.384 61.1223 153.541 60.7132 153.857C60.3042 154.172 60.0165 154.509 59.8503 154.866L58.4185 154.355C58.6742 153.759 59.0151 153.294 59.4412 152.962C59.8716 152.625 60.3404 152.391 60.8475 152.259C61.3588 152.122 61.8617 152.054 62.356 152.054C62.6713 152.054 63.0336 152.092 63.4426 152.169C63.856 152.241 64.2544 152.393 64.638 152.623C65.0257 152.853 65.3475 153.2 65.6032 153.665C65.8588 154.129 65.9867 154.751 65.9867 155.531V162H64.4782V160.67H64.4015C64.2992 160.884 64.1287 161.112 63.8901 161.354C63.6515 161.597 63.334 161.804 62.9377 161.974C62.5414 162.145 62.0577 162.23 61.4867 162.23ZM61.7168 160.875C62.3134 160.875 62.8162 160.758 63.2253 160.523C63.6387 160.289 63.9498 159.987 64.1586 159.616C64.3716 159.245 64.4782 158.855 64.4782 158.446V157.065C64.4142 157.142 64.2736 157.212 64.0563 157.276C63.8432 157.336 63.5961 157.389 63.3148 157.436C63.0378 157.479 62.7672 157.517 62.503 157.551C62.2431 157.581 62.0321 157.607 61.8702 157.628C61.4782 157.679 61.1117 157.762 60.7708 157.877C60.4341 157.988 60.1614 158.156 59.9526 158.382C59.748 158.604 59.6458 158.906 59.6458 159.29C59.6458 159.814 59.8397 160.21 60.2275 160.479C60.6195 160.743 61.1159 160.875 61.7168 160.875ZM78.1747 152.182V153.46H72.8821V152.182H78.1747ZM74.4673 162V150.827C74.4673 150.264 74.5994 149.795 74.8636 149.42C75.1278 149.045 75.4709 148.764 75.8928 148.577C76.3146 148.389 76.7599 148.295 77.2287 148.295C77.5994 148.295 77.902 148.325 78.1364 148.385C78.3707 148.445 78.5455 148.5 78.6605 148.551L78.2259 149.855C78.1491 149.83 78.0426 149.798 77.9062 149.759C77.7741 149.721 77.5994 149.702 77.3821 149.702C76.8835 149.702 76.5234 149.827 76.3018 150.079C76.0845 150.33 75.9759 150.699 75.9759 151.185V162H74.4673ZM83.8732 162.205C82.9869 162.205 82.2092 161.994 81.5401 161.572C80.8754 161.15 80.3555 160.56 79.9805 159.801C79.6097 159.043 79.4244 158.156 79.4244 157.142C79.4244 156.119 79.6097 155.227 79.9805 154.464C80.3555 153.701 80.8754 153.109 81.5401 152.687C82.2092 152.265 82.9869 152.054 83.8732 152.054C84.7596 152.054 85.5352 152.265 86.1999 152.687C86.869 153.109 87.3888 153.701 87.7596 154.464C88.1346 155.227 88.3221 156.119 88.3221 157.142C88.3221 158.156 88.1346 159.043 87.7596 159.801C87.3888 160.56 86.869 161.15 86.1999 161.572C85.5352 161.994 84.7596 162.205 83.8732 162.205ZM83.8732 160.849C84.5465 160.849 85.1005 160.677 85.5352 160.332C85.9698 159.987 86.2915 159.533 86.5004 158.97C86.7092 158.408 86.8136 157.798 86.8136 157.142C86.8136 156.486 86.7092 155.874 86.5004 155.308C86.2915 154.741 85.9698 154.283 85.5352 153.933C85.1005 153.584 84.5465 153.409 83.8732 153.409C83.1999 153.409 82.646 153.584 82.2113 153.933C81.7766 154.283 81.4549 154.741 81.2461 155.308C81.0373 155.874 80.9329 156.486 80.9329 157.142C80.9329 157.798 81.0373 158.408 81.2461 158.97C81.4549 159.533 81.7766 159.987 82.2113 160.332C82.646 160.677 83.1999 160.849 83.8732 160.849ZM96.8123 157.986V152.182H98.3208V162H96.8123V160.338H96.7101C96.4799 160.837 96.122 161.261 95.6362 161.61C95.1504 161.955 94.5368 162.128 93.7953 162.128C93.1816 162.128 92.6362 161.994 92.1589 161.725C91.6816 161.452 91.3066 161.043 91.0339 160.498C90.7612 159.948 90.6248 159.256 90.6248 158.42V152.182H92.1333V158.318C92.1333 159.034 92.3336 159.605 92.7342 160.031C93.139 160.457 93.6547 160.67 94.2811 160.67C94.6561 160.67 95.0375 160.575 95.4252 160.383C95.8173 160.191 96.1454 159.897 96.4096 159.501C96.6781 159.104 96.8123 158.599 96.8123 157.986ZM102.592 156.094V162H101.084V152.182H102.541V153.716H102.669C102.899 153.217 103.249 152.817 103.717 152.514C104.186 152.207 104.791 152.054 105.533 152.054C106.197 152.054 106.779 152.19 107.278 152.463C107.776 152.732 108.164 153.141 108.441 153.69C108.718 154.236 108.857 154.926 108.857 155.761V162H107.348V155.864C107.348 155.092 107.148 154.491 106.747 154.061C106.347 153.626 105.797 153.409 105.098 153.409C104.616 153.409 104.186 153.513 103.807 153.722C103.432 153.931 103.136 154.236 102.918 154.636C102.701 155.037 102.592 155.523 102.592 156.094ZM115.32 162.205C114.502 162.205 113.78 161.998 113.154 161.585C112.527 161.167 112.037 160.579 111.683 159.82C111.33 159.058 111.153 158.156 111.153 157.116C111.153 156.085 111.33 155.19 111.683 154.432C112.037 153.673 112.529 153.087 113.16 152.674C113.791 152.261 114.519 152.054 115.346 152.054C115.985 152.054 116.49 152.161 116.861 152.374C117.236 152.582 117.521 152.821 117.718 153.089C117.918 153.354 118.073 153.571 118.184 153.741H118.312V148.909H119.82V162H118.363V160.491H118.184C118.073 160.67 117.916 160.896 117.711 161.169C117.507 161.437 117.215 161.678 116.835 161.891C116.456 162.1 115.951 162.205 115.32 162.205ZM115.525 160.849C116.13 160.849 116.642 160.692 117.059 160.376C117.477 160.057 117.794 159.616 118.012 159.053C118.229 158.487 118.338 157.832 118.338 157.091C118.338 156.358 118.231 155.717 118.018 155.167C117.805 154.613 117.49 154.183 117.072 153.876C116.654 153.565 116.139 153.409 115.525 153.409C114.886 153.409 114.353 153.573 113.927 153.901C113.505 154.225 113.188 154.666 112.975 155.224C112.766 155.778 112.661 156.401 112.661 157.091C112.661 157.79 112.768 158.425 112.981 158.996C113.198 159.562 113.518 160.014 113.94 160.351C114.366 160.683 114.894 160.849 115.525 160.849Z"
            fill="#949494"
          />
        </svg>